#!OML:ASF I:\golf\golf\golf 2\Subject 1\2002-09-07\Subject1.ASF
:FULLY-SPECIFIED
:DEGREES
1
root -4.02252 18.121 -7.55856 7.1975 4.26571 -5.73514
lowerback -5.98347 0.052844 -1.12327
upperback -0.454036 0.00620809 4.7066
thorax 2.8901 -0.0373224 5.52819
lowerneck -21.663 -3.04773 -1.26214
upperneck 19.5052 -3.29459 -2.11207
head 9.74293 -1.8759 -1.01135
rclavicle 1.83876e-015 3.65764e-014
rhumerus -27.6867 -16.4599 -75.9807
rradius 23.1712
rwrist -7.04393
rhand -20.7947 13.9181
rfingers 7.12502
rthumb 5.57254 -15.9886
lclavicle 1.83876e-015 3.65764e-014
lhumerus -28.3085 8.29646 84.3605
lradius 29.352
lwrist 4.84418
lhand -9.2091 30.978
lfingers 7.12502
lthumb 16.7452 60.2759
rfemur -10.5674 2.009 25.924
rtibia 21.8389
rfoot -13.1573 -5.94717
rtoes 3.9919
lfemur -10.5326 1.02526 -9.87207
ltibia 24.389
lfoot -14.4242 5.54908
ltoes -13.7354
2
root -4.03296 18.1229 -7.55851 7.26072 4.41852 -5.64377
lowerback -5.85732 0.0568912 -1.12712
upperback -0.586048 0.0211676 4.60546
thorax 2.68088 -0.0235424 5.4216
lowerneck -21.5426 -3.00905 -1.17476
upperneck 19.4753 -3.27351 -2.10818
head 9.70911 -1.85884 -1.01835
rclavicle 1.77415e-014 -9.54166e-015
rhumerus -27.9214 -16.3735 -76.0857
rradius 23.3363
rwrist -7.13717
rhand -20.8808 13.6587
rfingers 7.12502
rthumb 5.48948 -16.2502
lclavicle 1.77415e-014 -9.54166e-015
lhumerus -28.4965 8.05951 84.3019
lradius 29.3531
lwrist 5.2482
lhand -9.7901 30.1424
lfingers 7.12502
lthumb 16.1858 59.4866
rfemur -10.6606 1.99104 25.8836
rtibia 21.9042
rfoot -13.3437 -6.00914
rtoes 6.13711
lfemur -10.6191 0.885238 -9.9271
ltibia 24.3586
lfoot -14.3332 5.57906
ltoes -14.4404
3
root -4.04103 18.1262 -7.55904 7.31247 4.52547 -5.56976
lowerback -5.71529 0.0965807 -1.0744
upperback -0.723203 0.0808483 4.48049
thorax 2.4533 0.0134861 5.26101
lowerneck -21.3826 -2.97803 -1.08446
upperneck 19.431 -3.27591 -2.05734
head 9.66364 -1.84673 -1.01184
rclavicle 7.97623e-015 -5.56597e-015
rhumerus -28.1514 -16.3665 -76.1837
rradius 23.4615
rwrist -7.3103
rhand -20.9765 13.5919
rfingers 7.12502
rthumb 5.39706 -16.3193
lclavicle 7.97623e-015 -5.56597e-015
lhumerus -28.7225 7.69992 84.2474
lradius 29.5518
lwrist 5.49138
lhand -9.87651 30.1122
lfingers 7.12502
lthumb 16.1026 59.4632
rfemur -10.7228 1.9573 25.8405
rtibia 21.9072
rfoot -13.4805 -5.98464
rtoes 7.5903
lfemur -10.7121 0.804759 -9.97882
ltibia 24.3938
lfoot -14.337 5.58824
ltoes -14.8772
4
root -4.04776 18.126 -7.55884 7.28006 4.5506 -5.58377
lowerback -5.63399 0.16329 -0.975274
upperback -0.747921 0.167585 4.41502
thorax 2.37401 0.0598095 5.14064
lowerneck -21.3584 -2.94232 -0.967453
upperneck 19.4476 -3.25315 -2.10539
head 9.66206 -1.83306 -1.04418
rclavicle -7.28049e-015 -1.39149e-014
rhumerus -28.2279 -16.2333 -76.2926
rradius 23.5671
rwrist -7.60623
rhand -21.0977 13.6217
rfingers 7.12502
rthumb 5.28 -16.2926
lclavicle -7.28049e-015 -1.39149e-014
lhumerus -28.7583 7.58788 84.2
lradius 29.7485
lwrist 5.27966
lhand -9.33053 30.6421
lfingers 7.12502
lthumb 16.6282 59.9498
rfemur -10.7108 1.95012 25.8801
rtibia 21.9235
rfoot -13.4052 -6.00901
rtoes 7.37178
lfemur -10.7038 0.778548 -9.93558
ltibia 24.4202
lfoot -14.3926 5.52038
ltoes -14.1642
5
root -4.05341 18.1208 -7.55634 7.21092 4.52553 -5.58228
lowerback -5.66752 0.23381 -0.932814
upperback -0.660009 0.256695 4.38319
thorax 2.47539 0.102096 5.09101
lowerneck -21.5398 -2.90387 -0.885498
upperneck 19.5689 -3.20455 -2.178
head 9.7351 -1.81335 -1.08132
rclavicle 1.15295e-014 -3.65764e-014
rhumerus -28.1788 -15.8884 -76.4557
rradius 23.7388
rwrist -8.03068
rhand -21.2263 13.4702
rfingers 7.12502
rthumb 5.1558 -16.4471
lclavicle 1.15295e-014 -3.65764e-014
lhumerus -28.651 7.46273 84.2481
lradius 29.9573
lwrist 5.1326
lhand -8.85367 31.4063
lfingers 7.12502
lthumb 17.0873 60.6749
rfemur -10.6326 1.97236 25.8989
rtibia 21.9139
rfoot -13.3259 -6.05496
rtoes 7.24468
lfemur -10.645 0.81062 -9.91651
ltibia 24.4632
lfoot -14.4683 5.48634
ltoes -13.6429
6
root -4.05861 18.1157 -7.55304 7.17761 4.55393 -5.63299
lowerback -5.71418 0.291806 -0.841198
upperback -0.611305 0.326471 4.37506
thorax 2.54581 0.13624 5.0367
lowerneck -21.6778 -2.86984 -0.813195
upperneck 19.687 -3.15761 -2.26001
head 9.79944 -1.7963 -1.11961
rclavicle -1.98785e-016 1.98785e-015
rhumerus -28.1535 -15.4348 -76.6198
rradius 23.9522
rwrist -8.57005
rhand -21.2975 13.2806
rfingers 7.12502
rthumb 5.08706 -16.6383
lclavicle -1.98785e-016 1.98785e-015
lhumerus -28.6303 7.18219 84.3655
lradius 30.0501
lwrist 5.59814
lhand -9.33941 31.5829
lfingers 7.12502
lthumb 16.6197 60.8913
rfemur -10.5736 1.98877 25.9784
rtibia 21.8785
rfoot -13.3338 -6.10264
rtoes 7.26194
lfemur -10.6448 0.87731 -9.84157
ltibia 24.5127
lfoot -14.5002 5.467
ltoes -13.9238
